<?xml version="1.0" encoding="iso-8859-1"?>
<!-- Generator: Adobe Illustrator 18.1.1, SVG Export Plug-In . SVG Version: 6.00 Build 0)  -->
<svg version="1.1" id="Capa_1" xmlns="http://www.w3.org/2000/svg" xmlns:xlink="http://www.w3.org/1999/xlink" x="0px" y="0px"
	 viewBox="0 0 611.998 611.998" style="enable-background:new 0 0 611.998 611.998;" xml:space="preserve">
<g>
	<path d="M600.427,329.764L407.49,301.822c-2.207-9.104-5.133-17.795-8.672-25.983h50.447c7.459,0,13.507-6.049,13.507-13.507
		s-6.049-13.507-13.507-13.507h-65.711c-16.517-22.857-38.936-38.45-64.082-42.602v-61.872c0-7.459-6.049-13.507-13.507-13.507
		c-7.459,0-13.507,6.049-13.507,13.507v61.872c-25.145,4.152-47.562,19.745-64.082,42.602h-65.643
		c-7.459,0-13.507,6.049-13.507,13.507s6.049,13.507,13.507,13.507h50.377c-3.55,8.21-6.484,16.927-8.691,26.058L11.579,329.761
		c-7.013,1.013-12.051,7.27-11.543,14.337c0.508,7.067,6.389,12.54,13.472,12.54h84.237v8.683
		c-16.314,5.624-28.085,21.096-28.085,39.296c0,22.933,18.659,41.592,41.592,41.592s41.592-18.659,41.592-41.592
		c0-18.2-11.77-33.671-28.085-39.296v-8.683h75.325c5.252,69.79,50.726,124.516,105.879,124.516s100.63-54.726,105.882-124.516
		h64.468v8.683c-16.314,5.627-28.085,21.096-28.085,39.296c0,22.933,18.659,41.592,41.592,41.592
		c22.933,0,41.592-18.659,41.592-41.592c0-18.2-11.77-33.671-28.085-39.296v-8.683h95.162c7.083,0,12.964-5.47,13.472-12.538
		C612.473,337.036,607.437,330.777,600.427,329.764z M125.829,404.616c0,8.04-6.538,14.577-14.577,14.577
		c-8.037,0-14.577-6.538-14.577-14.577s6.54-14.577,14.577-14.577C119.292,390.039,125.829,396.577,125.829,404.616z M243.73,288.58
		l48.67,2.72v28.536l-53.551-21.242L243.73,288.58z M320.525,319.836V291.3l48.67-2.72l4.879,10.017L320.525,319.836z
		 M504.4,404.616c0,8.04-6.538,14.577-14.577,14.577s-14.577-6.538-14.577-14.577s6.538-14.577,14.577-14.577
		S504.4,396.577,504.4,404.616z"/>
</g>
<g>
</g>
<g>
</g>
<g>
</g>
<g>
</g>
<g>
</g>
<g>
</g>
<g>
</g>
<g>
</g>
<g>
</g>
<g>
</g>
<g>
</g>
<g>
</g>
<g>
</g>
<g>
</g>
<g>
</g>
</svg>
